@startuml
!theme idta from https://raw.githubusercontent.com/admin-shell-io/aas-specs-antora/main/plantuml/

skinparam packageStyle rectangle


package "A)" {
    class Class1 {
    }
    class Class2 {
    }
    Class1*--Class2
}

package "B)" {
    class Class1 {
      +class2: Class2
    }
}

package "C)" {
    class Class1 {
    }
    class Class2 {
    }
    Class1 *-- "+class2" Class2
}

@enduml